<svg xmlns="http://www.w3.org/2000/svg" viewBox="332 331 360 360" width="32" height="32" version="1.1">
  <g transform="translate(0,1024) scale(0.1,-0.1)" stroke="none">
    <!-- Forme principale (Bleu foncé) -->
    <path d="M5020 6748 c-173 -94 -483 -236 -620 -283 -167 -57 -365 -108 -511 -132 l-111 -17 5 -546 c5 -592 8 -640 67 -885 118 -493 379 -857 857 -1194 102 -72 367 -229 400 -237 42 -11 401 206 578 350 295 238 498 502 616 796 52 131 112 367 134 530 15 101 19 226 22 655 l5 531 -108 17 c-334 52 -703 186 -1089 392 -77 41 -142 75 -145 75 -3 0 -48 -24 -100 -52z" fill="#1E3A8A"/>
    
    <!-- Rond intérieur (Bleu plus clair) -->
    <path d="M5266 5659 c94 -29 171 -77 238 -150 153 -164 184 -382 85 -594 -31 -68 -158 -194 -229 -227 -220 -103 -441 -68 -607 98 -86 85 -126 161 -149 283 -24 127 4 265 77 374 67 102 204 200 315 226 73 17 197 12 270 -10z" fill="#60A5FA"/>
  </g>
</svg>
